<svg id="Line" xmlns="http://www.w3.org/2000/svg" viewBox="0 0 64 64"><title>1</title><path d="M8.96887,15.88867l3.68836,38.8208A7.47026,7.47026,0,0,0,20.124,61.5H43.876a7.47026,7.47026,0,0,0,7.46679-6.79053l3.68836-38.8208H58a1.50018,1.50018,0,0,0-.00008-3H44.062l-1.3598-6.77588A4.51477,4.51477,0,0,0,38.29,2.5H25.71a4.51466,4.51466,0,0,0-4.41211,3.61377l-1.3598,6.7749H6a1.5,1.5,0,1,0,0,3ZM48.35645,54.42529A4.48281,4.48281,0,0,1,43.876,58.5H20.124a4.48281,4.48281,0,0,1-4.48047-4.07471L11.98218,15.88867c6.7686-.00174,33.81687.00126,40.03564,0ZM24.23926,6.70557A1.50484,1.50484,0,0,1,25.71,5.5H38.29a1.50494,1.50494,0,0,1,1.4707,1.20459L41.002,12.88867H22.99811Z"/><path d="M32,26.5A1.50008,1.50008,0,0,0,30.5,28V48a1.5,1.5,0,0,0,3,0V28A1.50007,1.50007,0,0,0,32,26.5Z"/><path d="M23,26.5A1.50008,1.50008,0,0,0,21.5,28V48a1.5,1.5,0,0,0,3,0V28A1.50007,1.50007,0,0,0,23,26.5Z"/><path d="M41,26.5A1.50008,1.50008,0,0,0,39.5,28V48a1.5,1.5,0,0,0,3,0V28A1.50007,1.50007,0,0,0,41,26.5Z"/></svg>