<svg width="429" height="412" viewBox="0 0 429 412" fill="none" xmlns="http://www.w3.org/2000/svg">
<path d="M398.66 29.6668V0H359.66V29.6668H330V68.6758H359.66V98.3426H398.66V68.6758H428.32V29.6668H398.66Z" fill="white"/>
<path d="M342.5 166V357C342.5 376.606 326.606 392.5 307 392.5H55C35.3939 392.5 19.5 376.606 19.5 357V104C19.5 84.3939 35.3939 68.5 55 68.5H90.9576C98.7217 68.5 106.272 71.0454 112.451 75.7463L164.436 115.293C177.404 125.158 193.249 130.5 209.542 130.5H307C326.606 130.5 342.5 146.394 342.5 166Z" stroke="white" stroke-width="39"/>
<rect x="19.5" y="165.5" width="323" height="227" rx="35.5" stroke="white" stroke-width="39"/>
</svg>
