<svg width="496" height="363" viewBox="0 0 496 363" fill="none" xmlns="http://www.w3.org/2000/svg">
<path d="M342.5 117V308C342.5 327.606 326.606 343.5 307 343.5H55C35.3939 343.5 19.5 327.606 19.5 308V55C19.5 35.3939 35.3939 19.5 55 19.5H90.9576C98.7217 19.5 106.272 22.0454 112.451 26.7463L164.436 66.293C177.404 76.1582 193.249 81.5 209.542 81.5H307C326.606 81.5 342.5 97.3939 342.5 117Z" stroke="white" stroke-width="39"/>
<path d="M130.12 120.5H375.674C400.092 120.5 417.22 144.581 409.209 167.648L356.415 319.648C351.455 333.927 337.997 343.5 322.88 343.5H77.3261C52.9077 343.5 35.7796 319.419 43.7913 296.352L96.5852 144.352C101.545 130.073 115.003 120.5 130.12 120.5Z" stroke="white" stroke-width="39"/>
</svg>
