<svg width="393" height="392" viewBox="0 0 393 392" fill="none" xmlns="http://www.w3.org/2000/svg">
<path d="M323.3 337.377C323.3 345.989 316.29 353.001 307.68 353.001H54.62C46.01 353.001 39 345.999 39 337.377V83.4491C39 74.8371 46.01 67.8255 54.62 67.8255H226.34V28.8265H54.62C24.5 28.8265 0 53.3322 0 83.4491V337.367C0 367.494 24.5 392 54.62 392H307.69C337.81 392 362.31 367.494 362.31 337.367V166.248H323.31V337.367L323.3 337.377Z" fill="white"/>
<path d="M270.95 118H91V157.009H270.95V118Z" fill="white"/>
<path d="M270.95 190.587H91V229.596H270.95V190.587Z" fill="white"/>
<path d="M177.31 263.173H91V302.182H177.31V263.173Z" fill="white"/>
<path d="M362.88 29.6668V0H323.88V29.6668H294.22V68.6758H323.88V98.3426H362.88V68.6758H392.54V29.6668H362.88Z" fill="white"/>
</svg>
