<svg id="Line" xmlns="http://www.w3.org/2000/svg" viewBox="0 0 64 64"><title>1</title><path d="M5.09375,53.58691c.13542.03216,17.52923-1.61252,17.67212-1.60053a1.60017,1.60017,0,0,0,.94793-.457s27.87113-27.8711,27.87605-27.876a7.14422,7.14422,0,0,0,0-10.09179l-7.97168-7.9707a7.168,7.168,0,0,0-10.09179.00008L5.64728,33.46893a1.60191,1.60191,0,0,0-.45389.94514L3.59961,51.95117A1.51064,1.51064,0,0,0,5.09375,53.58691ZM7.98633,36.8288A28.676,28.676,0,0,1,20.351,49.19348l-13.6,1.23621Zm22.61517-24.071L44.42236,26.57861,23.07312,47.92786A31.66393,31.66393,0,0,0,9.25189,34.10657Zm5.046-5.04584a4.15508,4.15508,0,0,1,5.84961.00005l7.97168,7.97066a4.15507,4.15507,0,0,1-.00005,5.8496l-2.92524,2.9253L32.7226,10.63666Z"/><path d="M5.09375,60.5h53.8125a1.50017,1.50017,0,0,0-.00008-3H5.09375A1.50017,1.50017,0,0,0,5.09375,60.5Z"/></svg>